<svg width="612" height="622" xmlns="http://www.w3.org/2000/svg" xmlns:xlink="http://www.w3.org/1999/xlink">
 <defs>
  <pattern patternTransform="matrix(-3.8028033,4.6063346,-94.96945,-78.402932,0,0)" id="imagebot_85" xlink:href="#imagebot_136"/>
  <pattern patternUnits="userSpaceOnUse" width="3" height="1" patternTransform="scale(10 10)" id="imagebot_136">
   <rect fill="black" x="0" y="-0.5" width="1" height="2" id="imagebot_137"/>
  </pattern>
  <marker id="imagebot_44" refX="0" refY="0" orient="auto">
   <path fill-rule="evenodd" stroke="#000000" stroke-width="1pt" marker-start="none" transform="matrix(0.8,0,0,0.8,10,0)" d="M0,0L5,-5L-12.5,0L5,5L0,0z" id="imagebot_135"/>
  </marker>
  <filter color-interpolation-filters="sRGB" height="1" width="1" y="0" x="0" id="imagebot_53">
   <feColorMatrix values="0" type="hueRotate" id="imagebot_132"/>
   <feColorMatrix values="1" type="saturate" id="imagebot_131"/>
   <feColorMatrix values="2 -1 0 0 0 0 2 -1 0 0 -1 0 2 0 0 0 0 0 1 0 " type="matrix" id="imagebot_130"/>
  </filter>
  <filter color-interpolation-filters="sRGB" height="1" width="1" y="0" x="0" id="imagebot_37">
   <feColorMatrix values="0" type="hueRotate" id="imagebot_129"/>
   <feColorMatrix values="1" type="saturate" id="imagebot_128"/>
   <feColorMatrix values="2 -1 0 0 0 0 2 -1 0 0 -1 0 2 0 0 0 0 0 1 0 " type="matrix" id="imagebot_127"/>
  </filter>
  <filter color-interpolation-filters="sRGB" height="1" width="1" y="0" x="0" id="imagebot_35">
   <feColorMatrix values="0" type="hueRotate" id="imagebot_126"/>
   <feColorMatrix values="1" type="saturate" id="imagebot_125"/>
   <feColorMatrix values="2 -1 0 0 0 0 2 -1 0 0 -1 0 2 0 0 0 0 0 1 0 " type="matrix" id="imagebot_124"/>
  </filter>
 </defs>
 <title/>
 <metadata id="imagebot_89">image/svg+xmlHorizontal Situation Indicator with flags</metadata>
 <g label="Layer 1" id="imagebot_88">
  <title>Layer 1</title>
 </g>
 <g id="imagebot_2">
  <path fill="#0c0c04" d="M 5.67539 0 L 606.36025 0 C 609.50442 0 612.03564 2.62283 612.03564 5.88078 L 612.03564 615.83212 C 612.03564 619.09008 609.50442 621.71291 606.36025 621.71291 L 5.67539 621.71291 C 2.53123 621.71291 0 619.09008 0 615.83212 L 0 5.88078 C 0 2.62283 2.53123 0 5.67539 0 z" id="imagebot_87"/>
  <g id="imagebot_71" transform="translate(154.69 0)">
   <path fill="#ffffff" stroke="#ff0000" stroke-linecap="round" stroke-linejoin="round" stroke-miterlimit="4" stroke-dashoffset="0" id="imagebot_86" d="M-126.18998,225.12515L-102.48386,225.12515L-102.48386,359.22556L-126.18998,359.22556L-126.18998,225.12515z"/>
   <g transform="translate(0,58.125166)" id="imagebot_72">
    <g id="imagebot_76">
     <path fill="url(#imagebot_85)" stroke="#ff0000" stroke-linecap="round" stroke-linejoin="round" stroke-miterlimit="4" stroke-dashoffset="0" id="imagebot_84" d="M-126.18998,166.99998L-102.48386,166.99998L-102.48386,301.10039L-126.18998,301.10039L-126.18998,166.99998z"/>
     <path fill="#ff0000" id="imagebot_83" d="M-125.05813,269.01493C-125.68627,271.22322 -125.23136,273.7438 -125.31059,276.02522C-117.98025,281.79578 -110.97713,288.25635 -103.35012,293.50686C-102.51334,291.50473 -103.05063,289.10027 -102.92837,286.99357C-110.31187,281.02796 -117.4756,274.67021 -125.05813,269.01493z"/>
     <path fill="#ff0000" id="imagebot_82" d="M-125.03041,292.33271C-125.4779,294.68068 -125.99067,297.95086 -124.24038,299.94393C-121.56234,301.11186 -118.28611,300.69621 -115.46293,300.36666C-115.50483,299.05145 -117.77635,298.33026 -118.55676,297.28075C-120.69993,295.64607 -122.72969,293.69416 -125.03041,292.33271z"/>
     <path fill="#ff0000" id="imagebot_81" d="M-124.90369,245.96942C-126.02247,247.83888 -125.0644,250.59659 -125.33633,252.70843C-117.9151,258.64646 -110.68006,265.09617 -103.10163,270.68212C-102.93953,268.33374 -102.43804,265.42377 -103.33722,263.38295C-110.54676,257.64697 -117.4662,251.30187 -124.90369,245.96942z"/>
     <path fill="#ff0000" id="imagebot_80" d="M-124.88389,222.99716C-126.1168,224.6983 -124.79809,227.52518 -125.14129,229.54114C-117.89501,235.46325 -110.81304,241.88837 -103.2828,247.34553C-102.58802,245.14699 -103.05082,242.65955 -102.97887,240.38871C-110.25799,234.6404 -117.14077,228.24767 -124.75816,222.99815L-124.85716,222.99415L-124.88386,222.99715L-124.88389,222.99716z"/>
     <path fill="#ff0000" id="imagebot_79" d="M-124.85914,199.70017C-126.06602,201.42885 -125.04583,204.16144 -125.35811,206.16001C-117.98955,212.06554 -110.89276,218.57773 -103.27983,224.03469C-102.57869,221.92395 -103.01384,219.52229 -102.92738,217.33626C-110.22579,211.50072 -117.15698,205.04604 -124.77202,199.69027L-124.85912,199.70027L-124.85914,199.70017z"/>
     <path fill="#ff0000" id="imagebot_78" d="M-124.94626,176.25073C-125.7878,178.26888 -125.22193,180.77846 -125.35811,182.9254C-117.98953,188.80765 -110.90192,195.31406 -103.27983,200.73276C-102.58119,198.63436 -103.01146,196.24543 -102.92837,194.07294C-110.27179,188.15935 -117.34937,181.7895 -124.94626,176.25073z"/>
     <path fill="#ff0000" id="imagebot_77" d="M-111.61772,167.63663C-112.38939,167.86949 -114.45013,167.34536 -114.59568,168.30291C-111.01735,171.51791 -107.32371,174.93712 -103.2828,177.42588C-102.71011,174.62001 -102.05376,170.53183 -105.23114,168.95632C-106.96271,167.33751 -109.44897,167.66246 -111.61772,167.63663z"/>
    </g>
    <g font-size="27.5px" font-style="normal" font-weight="bold" text-anchor="middle" fill="#000000" font-family="Arial" id="imagebot_73">
     <path d="M-113.69911,216.8224L-113.69911,213.50575L-105.13222,213.50575L-105.13222,221.34755C-105.96476,222.15322 -107.17101,222.86265 -108.75099,223.47585C-110.331,224.08905 -111.93114,224.39564 -113.55141,224.39565C-115.61034,224.39564 -117.40517,223.96372 -118.93593,223.09987C-120.46669,222.23602 -121.617,221.00067 -122.38686,219.39381C-123.15671,217.78697 -123.54164,216.03913 -123.54164,214.15028C-123.54164,212.10033 -123.11196,210.27863 -122.25258,208.6852C-121.39321,207.09179 -120.13548,205.86987 -118.47939,205.01942C-117.21719,204.36596 -115.64614,204.03922 -113.76625,204.0392C-111.32242,204.03922 -109.41344,204.55171 -108.03932,205.57668C-106.66524,206.60168 -105.78124,208.0183 -105.38734,209.82655L-109.3351,210.56508C-109.61262,209.5983 -110.13406,208.83515 -110.89943,208.27565C-111.66482,207.71618 -112.62043,207.43643 -113.76625,207.43642C-115.50291,207.43643 -116.88373,207.98697 -117.90871,209.08803C-118.9337,210.18912 -119.44619,211.82282 -119.44618,213.98915C-119.44619,216.32558 -118.92698,218.0779 -117.88857,219.24611C-116.85016,220.41433 -115.48949,220.99843 -113.80653,220.99843C-112.97403,220.99843 -112.13927,220.83506 -111.30226,220.50832C-110.46528,220.18158 -109.7469,219.78546 -109.14711,219.31996L-109.14711,216.8224L-113.69911,216.8224z" id="imagebot_75"/>
     <path d="M-122.36,248.43129L-118.49281,248.05531C-118.26007,249.35333 -117.78786,250.3067 -117.07619,250.91542C-116.36452,251.52415 -115.40444,251.82851 -114.19594,251.82851C-112.91584,251.82851 -111.95128,251.55772 -111.30226,251.01613C-110.65327,250.47455 -110.32876,249.84121 -110.32875,249.1161C-110.32876,248.65062 -110.46528,248.2545 -110.7383,247.92775C-111.01134,247.60102 -111.48802,247.3168 -112.16835,247.07509C-112.63386,246.91396 -113.69465,246.62751 -115.35072,246.21571C-117.48126,245.68757 -118.97622,245.03856 -119.83559,244.26869C-121.04408,243.18553 -121.64833,241.86514 -121.64833,240.30751C-121.64833,239.30492 -121.36411,238.36722 -120.79567,237.4944C-120.22723,236.62162 -119.40814,235.95694 -118.33839,235.50038C-117.26866,235.04386 -115.97736,234.81559 -114.46449,234.81557C-111.9938,234.81559 -110.13406,235.35717 -108.88527,236.44032C-107.63651,237.52351 -106.98079,238.96923 -106.91811,240.77748L-110.89272,240.95204C-111.06281,239.9405 -111.4276,239.21317 -111.98708,238.77003C-112.54658,238.32694 -113.38581,238.10538 -114.50478,238.10536C-115.65957,238.10538 -116.5637,238.3426 -117.21718,238.81703C-117.63792,239.12141 -117.84829,239.52872 -117.84828,240.03896C-117.84829,240.50446 -117.65135,240.90282 -117.25746,241.23402C-116.75617,241.65477 -115.53872,242.09341 -113.60512,242.54994C-111.67154,243.0065 -110.24148,243.47871 -109.31496,243.96657C-108.38846,244.45445 -107.66336,245.12136 -107.13966,245.9673C-106.616,246.81326 -106.35416,247.85838 -106.35414,249.10268C-106.35416,250.23061 -106.66747,251.28692 -107.29408,252.27162C-107.92073,253.25632 -108.80696,253.98813 -109.95277,254.46706C-111.09862,254.94598 -112.52643,255.18544 -114.23622,255.18544C-116.72483,255.18544 -118.63605,254.61029 -119.96986,253.45998C-121.30369,252.30967 -122.1004,250.63344 -122.36,248.43129z" id="imagebot_74"/>
    </g>
   </g>
  </g>
  <path fill="#eec1ff" stroke="#efecff" stroke-width="1.17349" stroke-linecap="square" stroke-miterlimit="4" d="M324.11234,54.96562C323.91445,54.99353 323.67645,55.1487 323.38351,55.44535C322.1487,56.69575 321.46077,70.05357 322.50889,72.4204C323.12327,73.80775 323.69956,71.31582 324.2581,65.07685C324.93746,57.48867 324.96962,54.84469 324.11244,54.96562L324.11234,54.96562zM303.19455,55.03943C301.89045,55.03943 301.50472,87.2046 302.79369,88.50981C303.22126,88.9428 303.74602,89.28475 303.95984,89.28475C304.17362,89.28475 304.36072,81.57955 304.3607,72.16209C304.3607,61.53423 303.91836,55.03943 303.19455,55.03943zM282.56828,56.58932C281.23039,56.9411 281.97226,70.02908 283.58866,73.15845C284.20449,74.35067 284.90254,75.1492 285.11924,74.92976C286.06441,73.97264 283.83425,56.96445 282.71404,56.58932C282.66654,56.57341 282.61142,56.57789 282.56838,56.58932zM263.43616,58.54514C263.24195,58.53824 263.0535,58.6743 262.81664,58.91417C262.04868,59.69181 266.84424,89.06251 268.0643,91.05605C269.78661,93.87026 269.32735,86.0989 267.00747,73.15845C264.93157,61.57868 264.27775,58.57532 263.43616,58.54514zM345.35813,58.58204C343.95027,58.58204 338.95536,88.97336 339.96469,91.38817C340.5072,92.68619 341.79107,88.01968 343.49957,78.65689C346.45547,62.45837 346.81086,58.58204 345.35813,58.58204zM365.29197,62.12466C363.7588,62.12466 358.86482,80.74128 359.93499,82.49472C360.4463,83.33248 361.65185,81.02516 362.88679,76.84867C365.8274,66.90397 366.59257,62.12466 365.29197,62.12466zM242.44546,63.23173C242.29327,63.24907 242.15228,63.30722 242.00816,63.45314C241.46682,64.00133 245.19352,79.32675 246.85498,83.38038C248.67176,87.81295 248.46355,80.28131 246.56344,72.93703C244.80774,66.15099 243.51112,63.11022 242.44546,63.23173zM384.82499,68.02903C384.57685,68.02942 384.32114,68.13332 384.13257,68.32424C382.51933,69.95788 372.06961,100.66866 372.61686,102.16364C372.94807,103.06843 373.37511,103.59984 373.6008,103.34452C374.84846,101.93288 386.05291,68.90343 385.48095,68.32424C385.29305,68.13392 385.07313,68.02863 384.82499,68.02903zM223.71419,69.20989C223.17112,69.20989 222.73027,69.7062 222.73027,70.31697C222.73027,72.81588 232.99255,100.87253 234.75617,103.19689C237.60463,106.95096 236.50666,102.34455 230.82042,86.40636C227.44669,76.95004 224.25729,69.20989 223.71419,69.20989zM403.70202,75.11426C402.13862,75.11426 394.92735,91.27378 395.83051,92.75355C396.3295,93.57113 398.27431,90.70574 400.64089,85.70522C404.74979,77.0231 405.31619,75.11426 403.70202,75.11426zM205.16515,77.14389C205.11375,77.15099 205.05906,77.17743 205.01948,77.2177C204.46863,77.77548 205.94135,82.40852 208.33572,87.58724C211.00366,93.35772 212.83644,96.17286 213.10964,94.89388C213.68316,92.20903 206.7573,76.92407 205.16525,77.14389zM422.43329,85.74213C420.9182,85.75804 403.31195,117.62138 404.10289,118.91728C405.03359,120.44221 403.885,122.17368 414.37958,103.78734C422.97766,88.72363 424.31453,85.72228 422.43329,85.74213zM187.52714,86.923C187.00917,86.923 186.57965,87.36811 186.57965,87.91937C186.57965,89.13923 199.52624,112.00224 201.77602,114.74732C202.65974,115.82557 203.57253,116.19044 203.78034,115.55917C204.25269,114.12425 188.81433,86.923 187.52714,86.923zM439.52467,96.96043C437.55498,97.01346 427.63027,111.3633 428.59202,112.9391C429.02335,113.64582 429.47623,114.06727 429.61241,113.86167C429.74849,113.65608 432.32358,109.93889 435.33382,105.59555C438.34408,101.25224 440.31077,97.37524 439.70688,96.99731C439.66058,96.96834 439.58814,96.95875 439.52469,96.96038zM169.96202,97.55085C168.12253,97.55085 169.24818,100.05037 174.55374,107.73588C177.56454,112.09727 180.22682,115.00485 180.49381,114.19378C181.00802,112.63164 171.46706,97.55085 169.96202,97.55085zM455.37699,109.35959C454.41493,109.35959 453.62779,109.90059 453.62777,110.57736C453.62777,111.25411 449.18239,117.18702 443.75196,123.75147C438.32151,130.31594 434.16032,136.20576 434.53209,136.81488C435.34474,138.14636 434.7153,138.8105 447.10463,123.71458C452.61701,116.99796 457.12625,111.0198 457.12623,110.42976C457.12623,109.83969 456.33909,109.35959 455.37699,109.35959zM153.45373,110.54045C152.01838,110.71652 153.43533,112.6112 165.58897,127.40481C172.466,135.77556 177.98879,141.56246 178.19794,140.61583C178.60911,138.75475 155.66848,110.54045 153.74526,110.54045C153.62653,110.54045 153.54941,110.52825 153.45373,110.54045zM471.55731,123.67768C470.57842,123.8109 467.51929,126.32163 464.19601,129.80344C460.39794,133.78265 457.5763,137.53031 457.92795,138.10648C458.27961,138.68263 461.73253,135.95138 465.58081,132.05449C469.4291,128.15762 472.25079,124.44688 471.84887,123.78837C471.79867,123.70617 471.69708,123.65862 471.55731,123.6776zM138.14802,125.04307C138.09052,125.05107 138.03765,125.04407 138.00215,125.07997C137.53458,125.55349 140.245,129.1556 144.05157,133.05088C147.85813,136.94614 151.16904,139.51147 151.41287,138.77072C151.96267,137.1005 139.9328,124.76967 138.14794,125.04309zM484.74939,138.40168C484.12671,138.48818 483.24695,138.95717 482.3442,139.76705C480.96877,141.00106 474.88085,146.18288 468.78771,151.28059C462.69459,156.37827 457.1889,161.00271 456.5796,161.53941C455.93288,162.10905 456.33966,162.49887 457.52709,162.49887C460.19924,162.49887 486.4635,140.15494 485.5511,138.66C485.3987,138.4104 485.12298,138.34982 484.74939,138.40168zM125.64836,141.24316C123.24524,141.23296 125.85773,143.96954 138.40312,154.52799C145.9272,160.86039 152.25112,166.0415 152.43334,166.0415C152.61552,166.0415 152.73385,165.37726 152.72487,164.56539C152.70857,163.10575 127.33682,141.25044 125.64836,141.24316zM498.01433,154.93391C496.11651,155.00801 480.44919,165.41296 480.44921,166.66884C480.44921,166.97665 481.12398,167.22236 481.94333,167.22236C484.23606,167.22236 499.41318,155.75504 498.1601,154.97082C498.1285,154.95042 498.0756,154.93142 498.01423,154.93392zM112.27409,157.11114C112.1217,157.10514 111.99592,157.13154 111.90967,157.18504C111.19744,157.63078 113.30986,159.92343 116.82935,162.49897C123.42232,167.32369 125.25272,168.08706 124.4822,165.74637C123.76457,163.56624 114.55858,157.18793 112.27409,157.11125zM508.47322,171.94587C507.31688,171.97277 505.45411,172.83042 503.7722,174.30761C502.29315,175.60656 500.45645,176.66936 499.69065,176.66936C498.92487,176.66936 497.0719,177.75135 495.57271,179.06798C494.07353,180.38466 491.62804,181.75341 490.14282,182.1309C488.65765,182.50836 487.44608,183.28622 487.44611,183.8653C487.44611,184.44437 486.743,184.93545 485.87909,184.93545C485.01516,184.93545 483.09437,185.99825 481.61536,187.29721C480.13632,188.59618 478.4429,189.65895 477.86181,189.65895C477.28072,189.65895 477.1563,190.19844 477.57028,190.87674C478.0443,191.65342 480.30406,190.92594 483.72901,188.884C486.72013,187.10075 492.60628,183.73669 496.7753,181.39284C507.02115,175.63246 509.60292,173.88965 509.60294,172.8315C509.60294,172.19876 509.16703,171.92973 508.47322,171.94587zM101.70585,174.49212C101.64325,174.50642 101.61185,174.52312 101.5965,174.56592C101.35321,175.24963 101.87799,176.25459 102.76263,176.78006C103.64731,177.30554 110.13854,181.13021 117.19374,185.3045C124.24894,189.47876 130.19505,192.40758 130.42223,191.7993C130.9786,190.30948 131.71706,190.80933 115.99115,181.54046C108.795,177.29905 102.64622,174.29055 101.70581,174.49213zM518.42194,190.83982C517.36669,190.83982 502.60602,198.03734 502.60604,198.5524C502.60604,199.74653 505.55799,198.97044 512.08099,196.00615C515.84915,194.29376 518.9321,192.43386 518.93212,191.8731C518.93212,191.31229 518.69787,190.83982 518.42194,190.83982zM92.19447,192.75873C92.00147,192.75902 91.85008,192.77503 91.75715,192.83253C91.04547,193.27791 94.06456,195.39388 98.53538,197.55602C107.15182,201.72303 108.44767,202.08666 108.44767,200.39748C108.44767,198.89336 95.08968,192.75442 92.19447,192.7587zM527.02229,211.17299C526.02214,210.9753 518.15065,213.47557 509.53004,216.70832C500.90946,219.94107 494.90943,222.60879 496.19222,222.64959C499.39198,222.7514 529.29039,211.6213 527.02229,211.17299zM84.17719,211.87411C84.025,211.88211 83.95853,211.91711 83.95853,211.98489C83.95853,213.13827 93.00654,217.21729 99.70155,219.07014C102.26707,219.78015 105.15328,220.90288 106.11536,221.54258C107.07742,222.1823 108.52054,222.71351 109.32227,222.72347C111.51482,222.75057 111.07383,220.70456 108.7392,220.02959C107.61677,219.70509 101.58195,217.55342 95.32848,215.23229C89.8567,213.20131 85.24199,211.82191 84.17719,211.87418zM533.54543,229.80864C532.82255,229.80864 521.46798,232.98977 517.1829,234.38452C513.88031,235.45946 513.84765,235.51854 516.59983,235.60229C518.20328,235.65109 522.11794,234.88508 525.30951,233.90479C528.50109,232.92447 531.78093,232.36952 532.59793,232.68702C533.41496,233.00448 534.09203,232.49688 534.09205,231.54304C534.09205,230.58923 533.83484,229.80864 533.54543,229.80864zM78.20066,231.80136C77.86286,231.82506 77.61731,231.91235 77.50827,232.02278C77.10699,232.42909 79.03287,233.37431 81.80843,234.1262C88.16742,235.84875 90.58428,236.01266 89.13331,234.67975C87.75309,233.41181 80.56524,231.6354 78.20066,231.80136zM535.3311,250.47392C534.18088,250.52962 532.66401,250.78302 530.59362,251.21195C528.34877,251.67706 524.413,252.40934 521.84749,252.83566C519.28198,253.26198 516.39572,253.77008 515.43368,253.97964C514.4716,254.1892 510.90147,254.77033 507.52573,255.23431C504.15001,255.69831 501.0671,256.58403 500.6746,257.22704C500.234,257.94895 501.26461,258.16186 503.33488,257.74368C518.54039,254.67193 534.85675,252.1685 536.67946,252.65115C538.04109,253.01172 538.70915,252.72825 538.42867,251.87621C538.09185,250.85293 537.24814,250.38103 535.3311,250.47392zM74.70222,251.10125C73.7936,251.07315 73.38261,251.38871 73.79117,251.8024C74.19972,252.2161 81.00223,253.76865 88.87821,255.23431C104.42749,258.12791 108.08063,258.55287 106.91709,257.37464C106.20505,256.65362 78.26001,251.21175 74.70222,251.10125zM535.87773,271.61893C535.06085,271.66053 534.07135,271.73073 532.92592,271.84035C528.75692,272.23945 524.55876,273.04024 523.59672,273.61164C521.39713,274.91803 534.91188,273.54964 538.1736,272.13555C539.23091,271.67714 538.32844,271.4943 535.87773,271.61893zM73.39031,271.95104C72.02873,272.00414 71.13089,272.16222 71.13089,272.46766C71.13089,272.9638 74.14829,273.56182 77.83623,273.79617C81.5242,274.0305 85.28793,274.33757 86.21794,274.46039C87.25456,274.59728 87.48018,274.25679 86.80103,273.61164C85.75583,272.61873 77.47501,271.79189 73.39031,271.95104zM84.79669,291.58307C74.30134,291.58307 67.88753,292.03099 67.88753,292.76393C67.88753,294.0845 99.6152,294.43815 100.90412,293.13296C101.33171,292.69997 101.70585,292.16856 101.70585,291.95208C101.70585,291.73559 94.09674,291.58307 84.79669,291.58307zM521.81105,291.58307C516.04084,291.63817 511.28887,291.86856 510.80553,292.358C510.37794,292.79098 510.04026,293.32239 510.04024,293.53889C510.04024,293.75536 517.64937,293.94481 526.94939,293.94481C537.44475,293.94481 543.85857,293.49688 543.85855,292.76393C543.85855,291.93856 531.42807,291.4913 521.81105,291.58307zM83.92207,312.72806C80.0738,312.66786 75.87566,313.09245 74.59289,313.65062C72.48643,314.56723 72.5429,314.67205 75.17596,314.57318C76.77943,314.51298 80.97757,314.08839 84.50516,313.65062L90.91897,312.83878L83.92207,312.728zM528.84438,312.72806L521.84749,312.83884L528.26131,313.65068C531.78892,314.08845 535.98704,314.513 537.59051,314.57325C540.22359,314.67215 540.28002,314.56725 538.1736,313.65068C536.89081,313.09251 532.69268,312.6679 528.84438,312.72812zM102.03384,327.96871C97.59315,327.82508 76.50832,331.59445 75.2124,332.8767C74.44892,333.63216 75.05286,333.80512 76.96164,333.39334C78.56509,333.04742 85.35199,331.82047 92.04868,330.66258C98.74537,329.50467 103.52337,328.32387 102.6898,328.04252C102.5527,327.99622 102.32988,327.97822 102.03384,327.96862zM510.14957,329.22338C509.85008,329.23558 509.65333,329.28478 509.53004,329.33416C508.52137,329.7372 509.00794,330.07201 510.76909,330.18291C512.37254,330.2839 514.47158,330.56794 515.43368,330.81025C516.39574,331.05255 521.11863,331.95806 525.92903,332.83988C535.9259,334.67246 537.59049,334.81408 537.59051,333.76244C537.59051,332.73167 514.64166,329.03055 510.14957,329.22344zM94.053,349.07682C90.82116,349.07682 78.12779,352.92809 78.12779,353.91102C78.12779,354.41262 81.90525,353.77413 86.54591,352.47182C95.32105,350.0094 97.38716,349.07684 94.053,349.07682zM516.59983,350.3684C513.83971,350.4524 513.87076,350.51834 517.1829,351.62307C519.10704,352.26489 523.04279,353.52277 525.92903,354.39073C532.76865,356.44762 532.56319,356.42035 533.29035,354.50151C533.69558,353.43214 533.20855,352.97312 531.94197,353.17303C530.86397,353.34317 527.64907,352.75811 524.76288,351.88145C521.87664,351.00477 518.20326,350.31966 516.59983,350.36846zM112.82072,362.06642C111.12683,362.06642 109.43308,362.574 109.06717,363.17349C108.70127,363.773 106.69839,364.63256 104.62124,365.0924C100.39481,366.0281 85.50898,371.89924 84.32295,373.10019C82.52614,374.9197 87.72957,373.59678 100.28462,369.00404C114.75102,363.71216 117.69546,362.06642 112.82072,362.06642zM497.7228,363.2473C494.82142,363.2473 498.627,365.21356 510.55043,369.8897C523.84919,375.1052 526.54178,375.73717 527.67825,373.87515C528.07464,373.22568 527.38135,372.69429 526.14767,372.69427C524.91405,372.69427 518.32808,370.56871 511.49792,367.97079C504.66775,365.37288 498.46242,363.2473 497.7228,363.2473zM106.37046,384.72442C105.93028,384.72514 105.32082,384.79722 104.51189,384.94584C100.47174,385.68771 92.12155,390.24337 92.12155,391.69894C92.12155,392.38935 92.54157,392.80111 93.06907,392.58461C103.78106,388.18822 109.45173,384.71939 106.37046,384.72442zM504.10017,385.90529C503.88767,385.89509 503.68484,385.89729 503.55354,385.94219C502.84823,386.18025 505.8797,388.28439 510.29533,390.59189C514.71095,392.89938 518.48021,394.84743 518.64058,394.94636C518.80094,395.04526 518.9321,394.39269 518.93212,393.50716C518.93212,391.87108 507.28763,386.04559 504.10017,385.90529zM120.80154,398.45208C119.86335,398.35438 117.48594,399.43688 113.40379,401.73638C101.99803,408.16125 101.45077,408.52357 101.45077,410.187C101.45077,411.14464 103.69323,410.38857 107.57305,408.08356C110.9403,406.08314 115.40082,403.567 117.48531,402.51132C119.5698,401.45566 121.2753,399.84162 121.2753,398.93179C121.2753,398.64583 121.11434,398.48462 120.80154,398.45208zM489.63264,400.77692C489.4523,400.77687 489.31832,400.80552 489.26822,400.88769C488.88261,401.51946 491.78738,403.69906 495.71846,405.7219C499.64952,407.74474 503.63936,410.16328 504.5739,411.10963C506.59652,413.15776 509.98836,413.42447 509.34784,411.47864C508.69931,409.50844 492.33668,400.77759 489.63264,400.777zM123.20672,418.89592C122.40912,418.83002 120.40344,419.87194 117.30311,422.03263C113.84866,424.44007 111.25987,426.82256 111.54524,427.30966C112.34233,428.67026 112.88719,428.44256 118.4328,424.57888C121.27424,422.59925 123.60761,420.25366 123.60761,419.33877C123.60761,419.06505 123.47255,418.91792 123.20672,418.89592zM488.79446,422.99208C488.66675,423.00838 488.56862,423.03638 488.50293,423.10285C487.934,423.67896 489.49724,425.37889 492.11069,427.0145C494.66192,428.61113 496.77526,430.35476 496.7753,430.88923C496.7753,431.42372 497.30004,431.54897 497.94144,431.14755C498.58283,430.74616 499.10757,429.97487 499.10759,429.45005C499.10759,427.86108 490.7096,422.75059 488.79446,422.99214zM146.49327,424.06226C145.54117,424.26586 142.46516,426.82803 132.57236,435.13294C127.6329,439.27955 123.60761,443.18874 123.60761,443.80498C123.60761,445.66502 125.33971,444.51541 136.36235,435.35436C142.17418,430.52407 146.93057,425.84767 146.93057,424.9479C146.93057,424.37342 146.92657,423.96966 146.49327,424.06226zM467.18426,430.40944C467.13546,430.41344 467.12996,430.41544 467.11146,430.44634C466.74068,431.05387 470.34792,434.86196 475.16517,438.89696C479.98242,442.93197 483.9477,446.8032 483.94772,447.49521C483.94772,448.35204 484.33942,448.31634 485.2232,447.42141C485.93696,446.69863 486.24055,445.61496 485.87916,445.02276C484.25827,442.36701 468.6971,430.2751 467.18433,430.40945zM147.7323,450.37357C147.00799,450.44217 145.24511,451.7926 142.88548,454.13761C140.02709,456.97833 138.00001,459.77336 138.36666,460.37411C139.24222,461.80864 148.09672,453.04527 148.09672,450.74261C148.09672,450.4736 147.9737,450.35072 147.7323,450.37357zM462.95697,452.55083C462.82824,452.53453 462.73984,452.54063 462.66543,452.58773C462.07015,452.9603 463.53801,455.29462 465.94523,457.79095C468.35241,460.28726 470.81628,462.03824 471.41155,461.66569C472.00683,461.29314 470.50249,458.95876 468.09531,456.46249C465.98903,454.2782 463.85888,452.66797 462.95697,452.55085zM441.34676,456.24103C439.90254,457.01605 440.73926,458.44424 447.79703,467.20102C451.96601,472.37358 455.47318,476.60593 455.59567,476.61111C455.71808,476.61711 456.11323,476.12593 456.47027,475.54092C457.11847,474.47886 442.38882,455.68188 441.34676,456.24103zM168.79587,456.38874C168.17896,456.2141 164.67899,459.73039 160.66926,464.58106C156.39223,469.75509 153.22711,474.3479 153.67237,474.80299C155.10088,476.26298 169.61904,458.77876 168.86876,456.49946C168.85446,456.45436 168.83696,456.40026 168.79596,456.38868zM408.00221,472.55195C406.82873,473.28635 407.3146,474.30957 415.32707,488.05091C418.4266,493.36656 420.97563,498.31744 420.97561,499.04779C420.97561,499.77815 421.50039,500.03965 422.14176,499.63824C422.78313,499.23682 423.30791,498.38516 423.30791,497.75621C423.30791,495.45118 409.01543,471.91784 408.00221,472.55195zM200.13613,474.43398C198.37123,475.30011 186.57965,494.55457 186.57965,496.83364C186.57965,499.77599 189.01687,496.82564 194.56047,487.20216C197.94211,481.33135 200.5637,475.60627 200.35477,474.50777C200.33277,474.39169 200.25379,474.37618 200.13613,474.43397zM176.59449,475.35652C175.83918,475.56812 174.29185,477.04311 172.29433,479.85859C169.9662,483.1401 168.3827,486.15644 168.75943,486.53792C169.74626,487.53721 172.17994,485.2025 174.99104,480.59665C177.25237,476.89154 177.56561,475.08447 176.59449,475.35652zM432.49132,477.27543C431.89846,477.64647 433.10997,480.30095 435.1516,483.1798C438.6045,488.04859 440.80016,489.70947 440.80014,487.46046C440.80014,485.52982 433.53119,476.62464 432.49132,477.27543zM232.89763,489.71151C232.03451,489.55258 229.67248,493.02493 229.0712,495.8742C228.63521,497.9401 227.90772,500.16965 227.43131,500.8191C226.46609,502.13491 222.73027,513.10141 222.73027,514.62054C222.73027,517.31268 225.0419,515.03679 226.26516,511.15173C227.03202,508.71619 228.32113,505.1293 229.14407,503.18084C231.06923,498.62287 233.22562,491.92443 233.22562,490.44956C233.22562,489.97368 233.09688,489.74819 232.89763,489.71151zM376.73484,491.40901C376.64994,491.40301 376.55816,491.43391 376.47972,491.48281C375.29217,492.22605 376.2053,498.20715 377.97386,501.37261C378.53008,502.36817 380.06696,506.23636 381.39942,509.97086C382.73189,513.70538 384.30255,516.76088 384.89786,516.76086C385.49317,516.76086 385.99114,516.40635 385.99114,515.98592C385.99114,514.74704 380.99789,500.9264 380.08751,499.63823C379.62852,498.98876 378.89455,496.73602 378.44762,494.61952C378.05653,492.7676 377.32896,491.44519 376.73484,491.409zM210.4857,492.99581C209.8836,492.98561 208.48222,495.04815 206.58638,498.78947C204.51635,502.87454 203.19188,506.80999 203.63457,507.53531C204.67303,509.23679 211.34593,495.96292 210.77723,493.32792C210.72783,493.09898 210.62463,492.99812 210.4857,492.99581zM268.46518,499.23229C267.29974,499.5123 265.81884,504.50406 264.31076,513.29208C263.24554,519.49951 262.37934,524.94628 262.37934,525.39602C262.37934,525.84577 262.90412,526.20789 263.54547,526.20787C264.18687,526.20787 264.71165,526.03833 264.71163,525.83885C264.71163,525.63933 265.76378,519.72047 267.04393,512.66472C268.32409,505.60903 269.16561,499.64636 268.93892,499.4168C268.78631,499.26237 268.63167,499.19231 268.46518,499.23238zM400.20357,499.60123C400.09952,499.58283 400.02506,499.62713 399.94849,499.67503C399.30328,500.07879 399.81425,502.33712 401.18752,505.06274C402.49009,507.64826 404.07394,509.43121 404.68595,509.04819C405.33116,508.64441 404.78365,506.3861 403.41049,503.66046C402.27072,501.39814 400.93122,499.72489 400.20357,499.60122zM341.49525,502.3689C341.44995,502.3749 341.391,502.4007 341.34959,502.4427C340.68653,503.1141 341.06768,508.14544 342.33354,515.4692C343.46794,522.03245 344.8285,527.38864 345.35824,527.38864C346.73891,527.38864 346.56786,524.8054 344.37429,512.36941C343.255,506.02386 342.17445,502.26204 341.49535,502.36889zM303.30388,503.14383C303.25938,503.13163 303.24168,503.15183 303.19453,503.18073C302.52704,503.59847 302.0284,509.69189 302.02838,517.42502C302.02838,525.64464 302.48506,530.93126 303.19453,530.93126C303.90749,530.93126 304.3607,525.39316 304.36068,516.68697C304.36068,508.06877 303.96957,503.31542 303.30386,503.14382zM245.57949,506.42814C244.9166,506.50424 243.62416,509.54297 242.2268,514.69425C240.84266,519.79698 240.72222,521.4843 241.78952,521.48428C243.25307,521.48428 246.05327,512.81151 246.05325,508.23636C246.05325,506.96926 245.88086,506.39358 245.57949,506.42814zM361.5749,507.86734C361.5102,507.88364 361.4582,507.93694 361.39271,507.97812C360.7552,508.37713 360.50104,509.59006 360.80965,510.67199C361.11826,511.75391 361.92747,514.88627 362.63176,517.64653C363.33603,520.40681 364.46005,522.66524 365.14627,522.66522C365.91753,522.66522 366.09855,521.42538 365.62,519.41784C363.43779,510.26328 362.54344,507.61934 361.57494,507.86742zM283.4429,513.88241C282.89017,514.09352 282.30337,516.69137 282.16741,521.48428C282.06602,525.05642 282.03991,528.41307 282.09461,528.93855C282.14931,529.46398 282.7287,529.56137 283.37009,529.15996C284.01147,528.75855 284.53625,524.9118 284.53625,520.59862C284.53625,515.85761 283.99572,513.6713 283.44297,513.88241zM324.44033,514.91567C324.35993,514.90547 324.27365,514.93407 324.18523,514.98947C322.91267,515.78589 322.57395,524.8665 323.71147,527.86837C324.80849,530.76318 326.87321,530.0899 326.08024,527.09341C325.69349,525.6321 325.36014,522.14253 325.35138,519.34394C325.34338,516.64188 325.00352,514.98914 324.44033,514.91566z" id="imagebot_70"/>
  <path fill="#ffffff" stroke="#ffffff" stroke-width="1.17349" d="M292.52399,119.56637L292.52399,92.51701L296.14998,92.51701L310.18022,113.75427L310.18022,92.51701L313.56935,92.51701L313.56935,119.56637L309.94335,119.56637L295.9131,98.31066L295.9131,119.56637L292.52399,119.56637z" id="imagebot_69"/>
  <path fill="#ffffff" stroke="#ffffff" stroke-width="1.17349" d="M386.27692,134.71866L389.33596,135.99577C388.73279,137.81629 388.61808,139.31521 388.99187,140.49246C389.3656,141.66973 390.1153,142.5874 391.24096,143.2455C392.57697,144.0266 393.97247,144.21751 395.42746,143.81822C396.88244,143.41893 398.00471,142.52685 398.79431,141.14201C399.54742,139.82106 399.74242,138.48272 399.37924,137.12698C399.01605,135.77126 398.17695,134.70899 396.86197,133.94019C396.32544,133.62654 395.59669,133.34252 394.67572,133.08813L396.4308,130.74793C396.60808,130.87993 396.75444,130.97979 396.87018,131.04744C398.07997,131.75473 399.35098,132.07171 400.68326,131.99838C402.0155,131.92518 403.06122,131.22261 403.82045,129.891C404.42174,128.83636 404.56734,127.75681 404.25732,126.65229C403.94727,125.54779 403.23467,124.66958 402.11961,124.01762C401.01498,123.37184 399.89406,123.18523 398.75682,123.45777C397.61953,123.73035 396.54484,124.50821 395.53273,125.79134L392.98389,123.61941C394.43038,121.89425 396.0712,120.86148 397.90637,120.5211C399.74152,120.18075 401.57434,120.5456 403.40484,121.61581C404.6672,122.35386 405.67327,123.3078 406.42299,124.47759C407.17269,125.64741 407.55868,126.87089 407.58096,128.14801C407.60316,129.42516 407.31063,130.59637 406.7033,131.66164C406.12628,132.67366 405.33263,133.4383 404.3224,133.95553C403.31212,134.47278 402.14129,134.6689 400.80993,134.54388C401.99528,135.66301 402.67972,136.94734 402.86321,138.39685C403.04661,139.84637 402.70714,141.32746 401.84472,142.84017C400.67855,144.88549 398.95367,146.1887 396.67006,146.74979C394.38639,147.31088 392.11896,146.9334 389.86769,145.61716C387.83735,144.43013 386.50076,142.83201 385.85794,140.82277C385.21512,138.81352 385.35479,136.77883 386.27692,134.71866L386.27692,134.71866z" id="imagebot_68"/>
  <path fill="#ffffff" stroke="#ffffff" stroke-width="1.17349" d="M475.52069,204.9452L473.66898,202.21409C474.6383,201.30648 475.24183,200.47071 475.47958,199.70676C475.84621,198.45554 475.70459,197.25999 475.05473,196.12015C474.53238,195.20402 473.82133,194.54734 472.92162,194.15013C471.75308,193.62597 470.3941,193.46884 468.84463,193.67874C467.29512,193.88865 465.35713,194.65951 463.0306,195.99128C464.46686,196.07488 465.72292,196.46967 466.79882,197.17581C467.87469,197.88194 468.72542,198.78363 469.35103,199.88087C470.44429,201.79836 470.67812,203.83835 470.05258,206.00086C469.42698,208.16336 468.00961,209.89041 465.80044,211.18198C464.34868,212.03073 462.81881,212.50259 461.21083,212.59758C459.60281,212.69248 458.15161,212.37984 456.8572,211.65943C455.56276,210.93901 454.51469,209.87572 453.71297,208.46956C452.34637,206.07269 452.10239,203.60896 452.98097,201.0784C453.85957,198.54781 456.29763,196.11393 460.29522,193.77679C464.76619,191.16289 468.49363,190.09866 471.47756,190.58413C474.07698,191.01029 476.08126,192.4591 477.49039,194.93054C478.54111,196.77346 478.89183,198.58178 478.54256,200.3555C478.19325,202.12922 477.18596,203.65911 475.52069,204.9452L475.52069,204.9452zM458.85153,199.03108C457.87318,199.60307 457.05684,200.36083 456.40258,201.3044C455.74829,202.24798 455.40269,203.23476 455.36581,204.26482C455.32891,205.29485 455.54738,206.22533 456.02105,207.05625C456.71345,208.27065 457.79259,209.0317 459.25848,209.33941C460.72434,209.6471 462.28836,209.31511 463.95053,208.34332C465.54953,207.40844 466.56331,206.24049 466.99185,204.83948C467.42036,203.43843 467.26111,202.08277 466.51406,200.77248C465.77305,199.47284 464.68417,198.63937 463.24742,198.27205C461.81065,197.90471 460.34537,198.1578 458.85153,199.03108L458.85153,199.03108z" id="imagebot_67"/>
  <path fill="#ffffff" stroke="#ffffff" stroke-width="1.17349" d="M478.83664,285.56006L505.54875,285.56006L505.54875,305.11827L502.39648,305.11827L502.39648,289.1396L494.21524,289.1396L494.21524,304.10346L491.08121,304.10346L491.08121,289.1396L481.98889,289.1396L481.98889,305.74561L478.83664,305.74561L478.83664,285.56006z" id="imagebot_66"/>
  <path fill="#ffffff" stroke="#ffffff" stroke-width="1.17349" d="M292.53885,489.47488L295.87332,489.17967C296.03122,490.53276 296.39867,491.64289 296.97568,492.51008C297.55266,493.3773 298.44854,494.07844 299.66329,494.61353C300.87802,495.14861 302.24461,495.41615 303.76303,495.41615C305.11139,495.41615 306.30181,495.21316 307.33436,494.80726C308.36688,494.40133 309.13521,493.84473 309.63933,493.13742C310.14344,492.43015 310.39548,491.65827 310.39552,490.8218C310.39548,489.97307 310.15254,489.23194 309.66666,488.59844C309.18075,487.96496 308.37902,487.43296 307.26149,487.00243C306.54477,486.71951 304.95954,486.27976 302.50579,485.68317C300.05199,485.08658 298.33315,484.52383 297.34922,483.99489C296.07374,483.31837 295.12321,482.47884 294.49763,481.4763C293.87202,480.47381 293.55923,479.35138 293.55923,478.10899C293.55923,476.7436 293.94188,475.46742 294.70717,474.28036C295.47244,473.09335 296.58999,472.19234 298.05984,471.57728C299.52966,470.96227 301.16347,470.65474 302.9613,470.65472C304.94132,470.65474 306.6875,470.97763 308.19988,471.62339C309.7122,472.26921 310.87531,473.21943 311.68922,474.47409C312.50306,475.7288 312.94036,477.14954 313.00114,478.73632L309.61201,478.99462C309.42983,477.28484 308.81328,475.99326 307.76256,475.11989C306.7118,474.24655 305.15996,473.80988 303.10707,473.80986C300.96913,473.80988 299.41123,474.20659 298.43336,474.99995C297.45549,475.79337 296.96656,476.74976 296.96658,477.86911C296.96656,478.84088 297.31277,479.64044 298.00518,480.26776C298.68542,480.89511 300.46197,481.53783 303.33483,482.19589C306.20768,482.85402 308.17858,483.42906 309.24758,483.92108C310.80242,484.64685 311.95035,485.56631 312.69136,486.67952C313.43234,487.79276 313.80282,489.07511 313.80286,490.5266C313.80282,491.96578 313.3959,493.32195 312.58203,494.59506C311.76815,495.8682 310.59896,496.85841 309.07448,497.5657C307.54996,498.27299 305.83416,498.62664 303.92703,498.62664C301.50968,498.62664 299.4841,498.26991 297.8503,497.55648C296.21647,496.84303 294.93491,495.76978 294.00565,494.33674C293.07638,492.90372 292.58744,491.28309 292.53885,489.47488L292.53885,489.47488z" id="imagebot_65"/>
  <path fill="#ffffff" stroke="#ffffff" stroke-width="1.17349" d="M134.0665,302.39139L107.35439,309.56888L107.35439,305.89709L124.86485,301.7825C126.69912,301.33967 128.52123,300.95835 130.33118,300.63852C127.47655,299.9497 125.83058,299.54377 125.39326,299.42073L107.35439,294.27288L107.35439,289.95532L120.87444,286.08058C124.22713,285.10883 127.37936,284.4077 130.33118,283.97714C128.64268,283.63276 126.7052,283.18377 124.51864,282.63021L107.35439,278.38643L107.35439,274.78848L134.0665,282.20584L134.0665,285.65619L113.71356,291.35759C112.01294,291.83735 110.96827,292.12027 110.57953,292.20634C111.80644,292.48929 112.8511,292.75377 113.71356,292.99974L134.0665,298.73805L134.0665,302.39139z" id="imagebot_64"/>
  <path fill="#ffffff" stroke="#ffffff" stroke-width="1.17349" d="M198.88297,145.44389L201.50471,143.39979C202.76009,144.83901 203.98463,145.68905 205.17835,145.9499C206.37206,146.21077 207.53173,146.0121 208.65738,145.35404C209.9934,144.57296 210.85441,143.44461 211.24044,141.969C211.62643,140.4934 211.42466,139.06317 210.6351,137.6783C209.88192,136.35738 208.83483,135.51722 207.4938,135.15783C206.15275,134.79849 204.82471,135.00319 203.50974,135.77197C202.97322,136.08566 202.36594,136.58276 201.68791,137.26322L200.56403,134.55398C200.76559,134.46458 200.92415,134.38608 201.03987,134.31841C202.24966,133.61114 203.15626,132.65498 203.75969,131.44996C204.3631,130.24498 204.28518,128.9767 203.526,127.64508C202.92469,126.59048 202.07423,125.92299 200.9746,125.6426C199.87498,125.36226 198.7676,125.5481 197.65249,126.19998C196.54791,126.8458 195.82783,127.73549 195.49229,128.86909C195.15677,130.00272 195.28467,131.3341 195.876,132.86325L192.74407,134.01253C191.9919,131.88142 191.92906,129.92611 192.55556,128.14654C193.18206,126.36702 194.41054,124.94216 196.24102,123.87196C197.5034,123.13395 198.82226,122.72863 200.19756,122.65605C201.57287,122.58345 202.81222,122.85679 203.9156,123.47577C205.01897,124.09484 205.87434,124.937 206.48172,126.00225C207.05871,127.01431 207.31582,128.0926 207.25307,129.23714C207.19027,130.38175 206.7726,131.50659 206.00001,132.61162C207.54978,132.13169 208.99039,132.17363 210.32179,132.7375C211.6532,133.30139 212.75013,134.33966 213.61261,135.85235C214.77874,137.89769 215.03084,140.06195 214.3689,142.34513C213.70692,144.62835 212.25032,146.42802 209.99907,147.7442C207.9687,148.93123 205.93364,149.30428 203.89389,148.86339C201.85412,148.4225 200.18381,147.28269 198.88297,145.44393L198.88297,145.44393L198.88297,145.44389zM216.87206,134.92675L219.4938,132.88263C220.74919,134.32185 221.97375,135.17189 223.16746,135.43274C224.36116,135.69361 225.52082,135.49494 226.64648,134.8369C227.98249,134.0558 228.84352,132.92745 229.22955,131.45186C229.61552,129.97626 229.41378,128.54603 228.62419,127.16116C227.87104,125.84022 226.82395,125.00006 225.4829,124.64067C224.14184,124.28133 222.81383,124.48603 221.49885,125.25483C220.96232,125.56852 220.35504,126.0656 219.677,126.74606L218.55314,124.03684C218.75471,123.94744 218.91326,123.86894 219.02898,123.80125C220.23877,123.09398 221.14536,122.13784 221.74879,120.93282C222.35221,119.72784 222.2743,118.45954 221.51509,117.12792C220.91378,116.07332 220.06332,115.40583 218.96372,115.12546C217.86407,114.84513 216.75672,115.03096 215.64161,115.68282C214.53701,116.32864 213.81695,117.21834 213.48141,118.35193C213.14589,119.48556 213.27378,120.81694 213.86509,122.34609L210.73318,123.49537C209.98101,121.36428 209.91818,119.40895 210.54468,117.62938C211.17118,115.84986 212.39968,114.425 214.23015,113.35482C215.49254,112.61679 216.81139,112.2115 218.1867,112.13889C219.562,112.06629 220.80135,112.33964 221.90471,112.95861C223.00809,113.57768 223.86347,114.41986 224.47083,115.48511C225.04782,116.49715 225.30496,117.57544 225.24218,118.72001C225.17938,119.86461 224.76171,120.98943 223.98912,122.09448C225.53892,121.61453 226.97953,121.65647 228.31093,122.22036C229.64231,122.78425 230.73924,123.82253 231.60172,125.33519C232.76785,127.38053 233.01995,129.54479 232.35801,131.82799C231.69606,134.11119 230.23945,135.91088 227.98818,137.22704C225.95784,138.41409 223.92278,138.78714 221.883,138.34625C219.84323,137.90536 218.17295,136.76553 216.87209,134.92679L216.87209,134.92679z" id="imagebot_63"/>
  <path fill="#ffffff" stroke="#ffffff" stroke-width="1.17349" d="M141.29295,221.45941L142.55413,218.36175C144.35196,218.97252 145.83217,219.08867 146.99477,218.71019C148.15735,218.33172 149.06358,217.57255 149.71348,216.4327C150.48482,215.07981 150.67335,213.66669 150.27906,212.19331C149.88472,210.71998 149.00378,209.58353 147.63621,208.78397C146.33173,208.02133 145.01008,207.82389 143.67126,208.19164C142.33243,208.55943 141.2834,209.40912 140.52419,210.74069C140.21444,211.28401 139.93396,212.02196 139.68276,212.95456L137.37174,211.17733C137.5021,210.9978 137.6007,210.84959 137.66751,210.73238C138.36599,209.50733 138.679,208.22026 138.6066,206.87117C138.5342,205.52212 137.84047,204.46318 136.52547,203.69436C135.48401,203.08549 134.41791,202.93803 133.32716,203.25198C132.23643,203.56596 131.36918,204.28752 130.72536,205.41669C130.08761,206.53527 129.90333,207.67035 130.17248,208.82193C130.44166,209.97358 131.2098,211.06184 132.47694,212.08674L130.3321,214.66775C128.62844,213.20301 127.60854,211.54145 127.27241,209.68311C126.9363,207.82481 127.29671,205.96883 128.35347,204.11524C129.08233,202.83692 130.02437,201.81817 131.17957,201.05896C132.33481,200.29981 133.54302,199.90894 134.80423,199.88638C136.06545,199.86398 137.22205,200.16012 138.27404,200.77511C139.27345,201.35944 140.02854,202.16309 140.53933,203.18606C141.05013,204.20912 141.2438,205.39474 141.12035,206.74291C142.22553,205.54257 143.49385,204.8495 144.92528,204.6637C146.35673,204.47785 147.81935,204.82161 149.31318,205.69504C151.333,206.87595 152.61997,208.62259 153.17407,210.93505C153.72816,213.24752 153.35523,215.54359 152.05557,217.82328C150.88334,219.87928 149.30513,221.23273 147.32095,221.88367C145.33675,222.53459 143.32743,222.39319 141.29295,221.45941L141.29295,221.45941zM146.3678,200.15936C143.63264,198.56028 141.5938,196.98835 140.25132,195.44357C138.90886,193.89883 138.10567,192.30005 137.8417,190.64723C137.57779,188.99445 137.9317,187.31584 138.90348,185.61136C139.62019,184.35436 140.49867,183.39787 141.5389,182.74189C142.57918,182.08597 143.74621,181.7243 145.04001,181.65685C146.33381,181.58955 147.75686,181.77518 149.30908,182.21393C150.86133,182.65274 152.78414,183.54254 155.07748,184.88328C157.79161,186.47011 159.82145,188.0332 161.16695,189.57264C162.51245,191.11207 163.3198,192.70973 163.58902,194.36559C163.85821,196.02147 163.50392,197.70696 162.52601,199.42205C161.23839,201.68044 159.4276,202.9867 157.09367,203.34083C154.28783,203.75995 150.71254,202.69948 146.3678,200.15936L146.3678,200.15936zM148.05325,197.20321C151.85095,199.42351 154.63498,200.45106 156.40535,200.28587C158.1757,200.12062 159.43746,199.37761 160.19059,198.05666C160.94372,196.73574 160.94572,195.25616 160.19659,193.61795C159.44742,191.97975 157.17925,190.05358 153.39208,187.83943C149.58387,185.61301 146.79719,184.58394 145.0321,184.75216C143.26701,184.92047 142.00181,185.67573 141.23652,187.01794C140.48339,188.3389 140.43439,189.71643 141.08943,191.15049C141.93426,192.96538 144.25553,194.98293 148.05321,197.20321L148.05321,197.20321L148.05325,197.20321z" id="imagebot_62"/>
  <path fill="#ffffff" stroke="#ffffff" stroke-width="1.17349" d="M466.65389,377.77431L468.29378,374.89805L486.39334,385.47978C486.13588,384.406 486.00144,383.11653 485.98999,381.61137C485.97779,380.10617 486.06489,378.81081 486.2489,377.72535L488.9946,379.3306C488.82445,381.37581 488.9273,383.31091 489.30357,385.13588C489.67973,386.9608 490.22479,388.41575 490.93875,389.50075L489.88193,391.35434L466.65389,377.77431zM456.55616,401.86897L453.82625,400.27297L462.65436,384.78916C463.3503,385.16762 463.94402,385.66386 464.43552,386.27791C465.25226,387.28094 465.9181,388.51178 466.433,389.97043C466.94791,391.42905 467.40045,393.3661 467.79062,395.7816C468.4009,399.53306 469.05323,402.20832 469.74758,403.80739C470.44192,405.40643 471.3256,406.51963 472.39864,407.14698C473.52427,407.80506 474.70601,407.95265 475.94387,407.58979C477.18172,407.22687 478.17417,406.3903 478.92124,405.08004C479.71081,403.69516 479.9322,402.3474 479.58541,401.03677C479.23858,399.72611 478.34236,398.64109 476.89667,397.78169L478.88195,395.00083C480.94416,396.47635 482.16942,398.20826 482.55772,400.19652C482.94597,402.18476 482.50552,404.2921 481.23602,406.51856C479.95446,408.76627 478.32473,410.18547 476.34684,410.77621C474.36894,411.36687 472.47002,411.13021 470.65007,410.06623C469.72431,409.52497 468.92366,408.80121 468.24814,407.89495C467.57259,406.98865 466.99395,405.80169 466.51224,404.33407C466.03051,402.86641 465.51617,400.59494 464.9692,397.51964C464.52241,394.95744 464.18361,393.28217 463.95279,392.49387C463.72197,391.70555 463.43993,391.00091 463.10665,390.37996L456.55616,401.86897z" id="imagebot_61"/>
  <path fill="#ffffff" stroke="#ffffff" stroke-width="1.17349" d="M399.55675,442.20547L402.39712,440.54487L412.84692,458.87295C413.15416,457.81268 413.67441,456.6279 414.40769,455.31857C415.14097,454.00923 415.85532,452.93112 416.55071,452.08429L418.13595,454.86465C416.97865,456.54968 416.11235,458.27768 415.53706,460.04863C414.96175,461.81951 414.71536,463.3555 414.79792,464.65663L412.96747,465.72679L399.55675,442.20547zM395.76488,452.60369L392.92824,454.60298C391.86915,453.26205 390.72615,452.45665 389.49927,452.18679C388.27236,451.91692 387.09085,452.11419 385.95468,452.77836C384.58709,453.5779 383.72753,454.77643 383.37593,456.37395C383.02438,457.97144 383.34063,459.63308 384.32449,461.35881C385.25984,462.99934 386.45278,464.02766 387.9033,464.44376C389.35385,464.85982 390.81551,464.63737 392.28829,463.77629C393.20353,463.24121 393.90939,462.548 394.40588,461.69672C394.90236,460.8454 395.16968,459.96115 395.20785,459.04403L398.07507,457.83645L402.69455,471.1788L391.19102,477.90424L389.624,475.15581L398.85523,469.75886L396.5123,462.73426C395.68246,464.52614 394.50482,465.86799 392.97942,466.75983C390.9596,467.94067 388.85149,468.22863 386.65504,467.62367C384.45862,467.0187 382.72571,465.603 381.45628,463.37657C380.24763,461.25667 379.81313,459.06766 380.15273,456.80957C380.55494,454.04617 382.03947,451.91413 384.60633,450.41343C386.71032,449.18337 388.76782,448.77587 390.77885,449.19095C392.78988,449.60606 394.45188,450.74361 395.76488,452.60369L395.76488,452.60369z" id="imagebot_60"/>
  <path fill="#ffffff" stroke="#ffffff" stroke-width="1.17349" d="M215.2315,451.93961L216.80762,449.17523L232.09837,458.1148C231.72462,458.81952 231.23456,459.42074 230.62816,459.91845C229.63764,460.74551 228.42216,461.41973 226.98169,461.94117C225.54126,462.46256 223.62835,462.92081 221.24298,463.3159C217.53829,463.93389 214.89637,464.59446 213.31724,465.29757C211.73815,466.0007 210.63883,466.89553 210.01931,467.98212C209.36945,469.12196 209.22368,470.31861 209.58201,471.57212C209.94039,472.82559 210.76656,473.83057 212.06049,474.58709C213.4281,475.38661 214.75905,475.6108 216.05332,475.25963C217.34764,474.90843 218.41913,474.00086 219.26782,472.53695L222.014,474.54728C220.55689,476.63553 218.84657,477.87625 216.88308,478.26946C214.91965,478.66261 212.83859,478.21646 210.63989,476.93108C208.4202,475.63332 207.01868,473.98303 206.43533,471.98016C205.85204,469.9773 206.08573,468.0544 207.13645,466.21146C207.67097,465.27403 208.3857,464.46326 209.28066,463.77919C210.17566,463.09512 211.34783,462.5092 212.79715,462.02138C214.24651,461.53359 216.48966,461.01275 219.52659,460.45886C222.05686,460.00644 223.71124,459.66335 224.48971,459.42962C225.26821,459.19588 225.96406,458.91028 226.57726,458.57279L215.2315,451.93961zM203.04753,441.13053L205.88792,442.79112L195.43813,461.1192C196.49852,460.85852 197.77192,460.72236 199.25831,460.71075C200.74474,460.69855 202.02394,460.78645 203.09588,460.97295L201.51064,463.75332C199.49093,463.58093 197.57995,463.68522 195.77775,464.06617C193.97557,464.44711 192.53875,464.99904 191.46728,465.722L189.63683,464.65183L203.04753,441.13053z" id="imagebot_59"/>
  <path fill="#ffffff" stroke="#ffffff" stroke-width="1.17349" d="M147.61882,387.70441L150.34875,386.10838L159.17685,401.59219C158.5052,402.01327 157.78394,402.28581 157.01304,402.40983C155.74684,402.62457 154.36129,402.59303 152.85636,402.31533C151.35145,402.03757 149.46856,401.46588 147.20768,400.6003C143.69419,399.25976 141.08006,398.49421 139.36532,398.30358C137.65062,398.11303 136.25673,398.33128 135.18369,398.95866C134.05807,399.61676 133.34097,400.57929 133.03236,401.84629C132.72382,403.11328 132.94296,404.40192 133.6901,405.71221C134.4797,407.09706 135.52165,407.96509 136.81593,408.31628C138.11024,408.66746 139.4863,408.424 140.94411,407.58589L142.32973,410.71733C140.03674,411.78807 137.94295,411.99661 136.04837,411.34298C134.15386,410.68934 132.57187,409.24933 131.30244,407.0229C130.02092,404.77516 129.62204,402.63636 130.10577,400.60646C130.58959,398.57659 131.74144,397.02965 133.56134,395.96562C134.48713,395.4244 135.50644,395.08413 136.61926,394.94485C137.73212,394.80551 139.03658,394.89165 140.53257,395.20296C142.02861,395.51437 144.22841,396.19903 147.13197,397.257C149.54663,398.14631 151.14876,398.68681 151.93835,398.87855C152.72796,399.07032 153.47162,399.17526 154.1693,399.19346L147.61882,387.70445L147.61882,387.70441zM143.32452,373.78845L137.78578,377.02663L143.58008,387.18938L140.97638,388.71159L119.89051,386.78582L118.55125,384.43689L133.54219,375.6726L131.73829,372.50872L134.342,370.98651L136.14587,374.15039L141.68463,370.91221L143.32452,373.78845zM135.18208,378.54886L124.75156,384.64696L139.36381,385.88327L135.18208,378.54886z" id="imagebot_58"/>
  <g id="imagebot_54" label="airplane" transform="matrix(1.19284 0 0 1.19284 -132.683 -61.5821)">
   <path fill="none" stroke="#f46e0b" stroke-width="5.24088" stroke-linecap="square" stroke-miterlimit="4" d="M365.11455,264.68068L365.11455,320.13569L365.11455,320.13569L365.11455,320.13569" id="imagebot_57"/>
   <path fill="none" stroke="#f46e0b" stroke-width="4.5778" stroke-linecap="square" stroke-miterlimit="4" d="M392.84205,293.02771L337.38704,293.02771L337.38704,293.02771L337.38704,293.02771" id="imagebot_56"/>
   <path fill="none" stroke="#f46e0b" stroke-width="3.34823" stroke-linecap="square" stroke-miterlimit="4" d="M376.43951,316.7446L353.78958,316.7446L353.78958,316.7446L353.78958,316.7446" id="imagebot_55"/>
  </g>
  <path fill="none" stroke="#f75612" stroke-width="6" stroke-linecap="round" stroke-linejoin="round" filter="url(#imagebot_53)" id="imagebot_52" d="M303.24906,515.63952L303.24906,571.76111L303.24906,571.76111L303.24906,571.76111L303.24906,571.76111"/>
  <path fill="#f4f712" fill-rule="evenodd" stroke="#f4f712" stroke-width="5.18163" stroke-linecap="square" stroke-miterlimit="4" id="imagebot_51" d="M302.7463,177.44884L302.7463,423.11966L302.7463,423.11966L302.7463,423.11966L302.7463,423.11966"/>
  <path fill="#f4f712" fill-rule="evenodd" stroke="#f4f712" stroke-width="4.81271" stroke-miterlimit="4" id="imagebot_50" d="M302.92803,431.66976L302.92803,489.97638L302.92803,489.97638L302.92803,489.97638L302.92803,489.97638"/>
  <path fill="#f4f712" fill-rule="evenodd" stroke="#f4f712" stroke-width="1.49626px" id="imagebot_49" d="M290.96722,156.24677C313.79054,156.24677 313.79054,156.24677 313.79054,156.24677L313.79054,156.24677L313.79054,156.24677C302.23435,125.87939 302.23435,125.87939 302.23435,125.87939L301.94543,126.3941L290.96722,156.24677z"/>
  <path fill="#f4f712" fill-rule="evenodd" stroke="#f4f712" stroke-width="5.25514" stroke-linecap="square" stroke-miterlimit="4" id="imagebot_48" d="M302.72936,157.83847L302.72936,166.02779L302.72936,166.02779L302.72936,166.02779L302.72936,166.02779"/>
  <path fill="none" stroke="#16ee17" stroke-width="2.81973px" d="M159.20272,437.70537L189.93844,463.4957L152.04468,476.33584L159.20272,437.70537z" id="imagebot_46"/>
  <g stroke="#000000" id="imagebot_42" transform="matrix(1.1997033,0,0,0.97600303,147.89283,349.5712)">
   <path fill="#ffffff" fill-rule="evenodd" stroke="#000000" stroke-width="6" stroke-miterlimit="4" id="imagebot_45" d="M-60,175.36218C-60,192.02885 -60,208.69552 -60,225.36218"/>
   <path fill="#ffffff" fill-rule="evenodd" stroke="#000000" stroke-width="1.9" stroke-miterlimit="4" marker-start="url(#imagebot_44)" marker-mid="none" marker-end="none" id="imagebot_43" d="M-60,154.16218C-60,167.49552 -60,180.82885 -60,194.16218"/>
  </g>
  <path fill="none" stroke="#008000" stroke-width="3.57853" stroke-miterlimit="4" d="M522.25559,522.57066L562.37822,522.57066L541.6034,556.76442L522.25559,522.57066z" id="imagebot_40"/>
  <path fill="none" transform="matrix(-1.62719 1.67482 -1.67482 -1.62719 1867.94 243.639)" d="M496.9701,320.53174C496.9701,327.27646 491.50242,332.74414 484.75769,332.74414C478.01297,332.74414 472.54529,327.27646 472.54529,320.53174C472.54529,313.78701 478.01297,308.31933 484.75769,308.31933C491.50242,308.31933 496.9701,313.78701 496.9701,320.53174z" id="imagebot_39"/>
  <path d="M513.20112,549.12073L512.66028,547.62067C513.89418,547.17927 515.02294,547.12121 516.04661,547.44644C517.07026,547.7717 517.92228,548.43863 518.60264,549.44725C519.30676,550.49109 519.66693,551.48341 519.68308,552.42415C519.69938,553.36493 519.41946,554.27782 518.8437,555.16286C518.26793,556.04789 517.5176,556.80237 516.59265,557.42627C515.58404,558.10663 514.57428,558.50739 513.56336,558.62858C512.55244,558.74976 511.61217,558.58618 510.74255,558.13775C509.87297,557.68937 509.14997,557.03794 508.57358,556.1835C507.91996,555.21452 507.61698,554.23331 507.66462,553.23989C507.71232,552.24647 508.09549,551.31828 508.81431,550.45531L509.96279,551.51664C509.40962,552.21663 509.11635,552.88866 509.08301,553.53279C509.04971,554.1769 509.25132,554.82268 509.68811,555.47013C510.19023,556.21449 510.78825,556.71627 511.48221,556.97553C512.1762,557.23479 512.89212,557.26294 513.62997,557.06003C514.36786,556.85704 515.05611,556.54021 515.69475,556.10942C516.51839,555.55385 517.15644,554.94881 517.60894,554.2943C518.06143,553.63981 518.26881,552.95682 518.23105,552.24531C518.19335,551.5338 517.97536,550.88294 517.57723,550.29275C517.09297,549.57484 516.47596,549.10665 515.72621,548.88821C514.97649,548.6698 514.13478,548.74724 513.20112,549.12077L513.20112,549.12077L513.20112,549.12073zM515.39912,544.85633L503.06978,542.70994L502.74818,541.07572L513.28792,534.12834L513.62799,535.85638L510.41937,537.87669L511.36264,542.66989L515.08213,543.24557L515.39912,544.85633zM510.04103,542.47514L509.27627,538.58898L506.3371,540.41005C505.44454,540.96474 504.70553,541.39174 504.12008,541.69104C504.88382,541.69204 505.65412,541.75464 506.43102,541.87792L510.04103,542.47514zM513.45858,532.73043L502.01323,530.38664L503.05242,525.31197C503.26135,524.29183 503.52296,523.53737 503.83724,523.04856C504.15156,522.55979 504.60146,522.20995 505.18694,521.99902C505.77245,521.78813 506.38008,521.74717 507.00987,521.87621C507.82181,522.04247 508.45241,522.44548 508.90169,523.0852C509.35094,523.72494 509.53859,524.60937 509.46464,525.73848C509.7393,525.37715 509.99162,525.11157 510.22162,524.94175C510.71819,524.58248 511.31146,524.26743 512.00142,523.99654L515.52418,522.64362L515.13409,524.54858L512.44272,525.57555C511.66509,525.87727 511.06481,526.13395 510.64185,526.34562C510.21889,526.55726 509.91136,526.76137 509.71927,526.95794C509.52709,527.1546 509.3785,527.36404 509.2733,527.58652C509.2017,527.75075 509.126,528.02814 509.04596,528.4185L508.68625,530.17512L513.76874,531.21593L513.45858,532.73051zM507.37464,529.90644L508.04133,526.65084C508.18312,525.95863 508.22229,525.40267 508.15925,524.98298C508.09605,524.56333 507.92782,524.21975 507.65448,523.95227C507.38117,523.68481 507.05975,523.51324 506.6902,523.43755C506.14889,523.32677 505.66365,523.43155 505.23445,523.7536C504.80527,524.07517 504.5038,524.66013 504.33007,525.50851L503.58824,529.13105L507.37472,529.90644zM516.36155,521.25097L506.83154,514.49314L509.15944,511.21028C509.68495,510.46921 510.13149,509.93592 510.49908,509.6104C511.01199,509.15347 511.56986,508.84894 512.17273,508.69677C512.95393,508.49521 513.76333,508.50419 514.60094,508.72367C515.43855,508.94315 516.28206,509.35405 517.13149,509.95635C517.85524,510.46959 518.43671,511.00891 518.87593,511.57437C519.31513,512.13983 519.6241,512.68456 519.80284,513.20861C519.98155,513.73265 520.06465,514.2263 520.05204,514.68953C520.03984,515.1528 519.92984,515.64494 519.72315,516.16596C519.51649,516.68701 519.2088,517.23574 518.80008,517.81214L516.36155,521.251zM516.13122,519.19235L517.57405,517.15763C518.01965,516.52924 518.31072,515.99479 518.44724,515.55426C518.58372,515.11376 518.62106,514.71202 518.55945,514.34908C518.47255,513.83801 518.23568,513.32005 517.8491,512.79517C517.46254,512.27031 516.90954,511.75279 516.19013,511.24264C515.19335,510.53584 514.31135,510.15625 513.5441,510.1039C512.77687,510.0517 512.13628,510.1949 511.62237,510.53388C511.25264,510.77973 510.80196,511.27752 510.2703,512.02727L508.85052,514.02948L516.1313,519.19235zM525.46517,506.02379L526.76062,505.342C527.05042,505.85417 527.38412,506.23414 527.76173,506.4819C528.13933,506.72965 528.6178,506.85732 529.19714,506.86489C529.77645,506.87289 530.37231,506.74779 530.98469,506.49085C531.52848,506.26271 531.9747,505.98044 532.32329,505.64406C532.67189,505.30769 532.88873,504.95599 532.97387,504.58899C533.05897,504.222 533.03157,503.87193 532.89187,503.53878C532.75008,503.20075 532.52822,502.94668 532.22641,502.77659C531.92459,502.60645 531.51234,502.53029 530.98969,502.5479C530.65337,502.5559 529.94056,502.64949 528.85125,502.82717C527.76195,503.00466 526.97469,503.07147 526.48947,503.0273C525.86203,502.9736 525.33839,502.80016 524.91856,502.50673C524.49874,502.21332 524.18503,501.81919 523.97745,501.32437C523.74928,500.78058 523.69037,500.20755 523.80057,499.60529C523.91094,499.00305 524.21104,498.45509 524.70106,497.96142C525.19108,497.46777 525.79862,497.06885 526.52368,496.76463C527.32225,496.42962 528.08044,496.26274 528.79829,496.26404C529.51613,496.26504 530.144,496.44704 530.68189,496.80898C531.21979,497.171 531.63355,497.66285 531.9232,498.28454L530.59951,498.96088C530.24033,498.31075 529.77588,497.90067 529.20617,497.7306C528.63647,497.56066 527.93765,497.6492 527.10969,497.99659C526.24745,498.35835 525.68542,498.77996 525.42363,499.26139C525.16182,499.74285 525.12445,500.20649 525.31142,500.6523C525.47382,501.03933 525.74703,501.2992 526.1311,501.43189C526.51028,501.56654 527.33416,501.52209 528.60277,501.29806C529.87135,501.07405 530.76234,500.9696 531.27567,500.98467C532.02403,501.01057 532.64063,501.18257 533.12551,501.5006C533.61034,501.81859 533.97405,502.26662 534.2166,502.84471C534.45707,503.41792 534.51956,504.0269 534.40409,504.67166C534.28862,505.31644 533.9825,505.90864 533.48585,506.4483C532.98919,506.98795 532.35628,507.41913 531.58714,507.74183C530.6122,508.15086 529.73567,508.35152 528.95752,508.34383C528.17938,508.33583 527.48319,508.12554 526.86895,507.71203C526.25473,507.29852 525.78673,506.73579 525.465,506.02385L525.465,506.02385zM537.71575,505.50978L537.5348,493.8283L545.98115,493.69753L546.00255,495.07604L539.10204,495.18294L539.15754,498.76068L545.6198,498.66051L545.641,500.03106L539.17876,500.13123L539.24036,504.10738L546.4118,503.9964L546.4332,505.37491L537.71594,505.50996zM551.40195,506.90869L554.93462,497.22898L551.31876,495.90937L551.79143,494.61424L560.49044,497.78899L560.01778,499.08412L556.38694,497.75902L552.85429,507.43873L551.40195,506.90869zM561.52651,512.4651L570.49318,504.9759L573.31823,508.35828C573.81545,508.9536 574.16666,509.43211 574.37181,509.79376C574.66622,510.29545 574.8348,510.78112 574.8775,511.25078C574.9201,511.72043 574.8318,512.20094 574.61228,512.69232C574.39277,513.18369 574.06078,513.61499 573.61634,513.98621C572.85382,514.62309 572.00589,514.91942 571.07257,514.87523C570.13922,514.83093 569.14297,514.17488 568.0838,512.90674L566.16297,510.60696L562.51758,513.65169L561.52651,512.4651zM567.2211,509.72318L569.15727,512.0413C569.79754,512.8079 570.39491,513.23306 570.94941,513.31678C571.50388,513.40048 572.04006,513.22618 572.55792,512.79358C572.93304,512.48025 573.17498,512.11726 573.28372,511.70456C573.39245,511.29189 573.36022,510.89484 573.18702,510.51342C573.07319,510.26934 572.79142,509.87818 572.34188,509.33992L570.42615,507.04628L567.22115,509.72318zM581.64102,525.07421L582.09303,526.55269L575.63805,528.52616C574.51521,528.86945 573.58474,529.01503 572.84658,528.96292C572.10842,528.91092 571.43096,528.61655 570.81419,528.08012C570.1974,527.5437 569.72436,526.73693 569.39507,525.65983C569.07507,524.61321 568.99371,523.70197 569.15095,522.92613C569.30824,522.15027 569.68501,521.51563 570.28135,521.02219C570.87772,520.52875 571.76781,520.10108 572.95161,519.73916L579.40658,517.76567L579.85861,519.24415L573.41124,521.21529C572.44082,521.51198 571.7533,521.8208 571.34864,522.14173C570.94399,522.46266 570.68436,522.88092 570.56977,523.39652C570.45511,523.9121 570.49487,524.48743 570.68911,525.12252C571.02151,526.20978 571.50479,526.90926 572.13898,527.22093C572.77316,527.5326 573.79138,527.47407 575.19363,527.04527L581.641,525.07413zM574.89261,532.4939L574.87421,533.95773C574.28582,533.96793 573.79273,534.08034 573.39488,534.2941C572.99704,534.50787 572.65667,534.86756 572.37376,535.37316C572.09086,535.87876 571.91631,536.46195 571.85013,537.12277C571.79133,537.70955 571.82663,538.23635 571.95621,538.70317C572.08556,539.16997 572.29138,539.52829 572.57337,539.77813C572.85535,540.02794 573.1761,540.17087 573.53557,540.20688C573.90032,540.24338 574.22941,540.16958 574.52284,539.9854C574.81627,539.80118 575.07986,539.47521 575.31359,539.00741C575.4664,538.70767 575.72449,538.03674 576.08784,536.99459C576.45118,535.95241 576.76795,535.22862 577.03817,534.82319C577.3845,534.29724 577.78673,533.91972 578.24486,533.69063C578.70295,533.46153 579.19896,533.37372 579.7329,533.42721C580.31966,533.48601 580.85146,533.70745 581.32823,534.09158C581.80501,534.47571 582.1435,535.00084 582.34376,535.66696C582.5441,536.33308 582.60496,537.05734 582.52656,537.83973C582.44026,538.70139 582.22535,539.4474 581.88192,540.07778C581.53845,540.70811 581.07938,541.17338 580.5047,541.47357C579.93002,541.77373 579.30037,541.90289 578.61579,541.86103L578.65249,540.375C579.39522,540.369 579.97716,540.15663 580.39831,539.73696C580.81943,539.31726 581.07475,538.66073 581.16423,537.76734C581.25743,536.83695 581.15403,536.1419 580.8565,535.6822C580.55815,535.22248 580.16844,534.96855 579.68738,534.92036C579.26975,534.87856 578.91106,534.99486 578.61128,535.2691C578.31202,535.53813 577.95836,536.28359 577.55034,537.50549C577.14228,538.72738 576.80923,539.56032 576.55119,540.00435C576.17151,540.64977 575.72633,541.10975 575.21561,541.38431C574.70488,541.65885 574.13765,541.76487 573.51386,541.70241C572.89534,541.64041 572.33027,541.40498 571.81861,540.99599C571.30694,540.58701 570.93236,540.03557 570.69485,539.34168C570.45734,538.6478 570.38014,537.88587 570.46327,537.05593C570.56854,536.00395 570.81024,535.13779 571.18805,534.4575C571.56588,533.77718 572.08298,533.26568 572.73935,532.92296C573.3957,532.58024 574.11349,532.43723 574.89272,532.4939L574.89272,532.4939zM569.56576,543.55675L579.82683,549.14247L579.08765,550.50034L574.87403,548.20661L571.9707,553.54013L576.1843,555.83386L575.44514,557.19172L565.18408,551.60602L565.92325,550.24814L570.7598,552.88097L573.66316,547.54747L568.82659,544.91463L569.56576,543.55675z" id="imagebot_38"/>
  <path fill="none" stroke="#ff9a00" stroke-width="6" filter="url(#imagebot_37)" id="imagebot_36" d="M303.19451,38.93772L303.19451,95.0593L303.19451,95.0593L303.19451,95.0593L303.19451,95.0593"/>
  <path fill="#f75612" fill-rule="evenodd" stroke="#f75612" stroke-width="2" filter="url(#imagebot_35)" id="imagebot_34" d="M289.65018,22.79784C316.73883,22.79784 316.73883,22.79784 316.73883,22.79784L316.73883,22.79784L316.73883,22.79784C303.02293,49.8865 303.02293,49.8865 303.02293,49.8865L302.68006,49.42738L289.65018,22.79784z"/>
  <path fill="#ffffff" stroke="#000000" stroke-width="0.49436" stroke-linecap="round" stroke-linejoin="round" stroke-miterlimit="4" stroke-dashoffset="0" id="imagebot_29" d="M355.13436,279.65557L346.08503,235.57764L373.34889,206.53577L409.66208,221.57185L418.71141,265.64978L391.44755,294.69164L355.13436,279.65557z"/>
  <path fill="#ff0000" fill-rule="evenodd" d="M384.93217,211.40213L414.51221,245.0842L409.76594,221.83933L384.93217,211.40213z" id="imagebot_28"/>
  <path fill="#ff0000" fill-rule="evenodd" d="M350.33428,256.29088L381.22232,290.22019L354.33624,279.71693L350.33428,256.29088z" id="imagebot_27"/>
  <path fill="#ff0000" d="M419.14819,265.52548L410.82812,273.93846L361.9226,218.6861L370.24268,210.27313L419.14819,265.52548z" id="imagebot_26"/>
  <path fill="#ff0000" d="M404.90575,280.24413L396.39155,289.31567L346.47309,235.13461L355.12434,226.73418L404.90575,280.24413z" id="imagebot_25"/>
  <g font-size="42.85375px" font-style="normal" font-weight="bold" text-anchor="middle" fill="#000000" font-family="Arial" id="imagebot_21" transform="matrix(0.127437 0.624125 -0.595299 0.130183 583.63 314.806)">
   <path id="imagebot_24" d="M-209.59871,317.84677L-209.59871,287.17118L-203.5724,287.17118L-191.01759,307.65645L-191.01759,287.17118L-185.2633,287.17118L-185.2633,317.84677L-191.47793,317.84677L-203.84442,297.84277L-203.84442,317.84677L-209.59871,317.84677z"/>
   <path id="imagebot_23" d="M-151.03052,317.84677L-157.76827,317.84677L-160.44663,310.87885L-172.70849,310.87885L-175.24038,317.84677L-181.81073,317.84677L-169.86273,287.17118L-163.31331,287.17118L-151.03052,317.84677zM-162.43447,305.71045L-166.66126,294.32743L-170.80434,305.71045z"/>
   <path id="imagebot_22" d="M-139.89859,317.84677L-150.86312,287.17118L-144.1463,287.17118L-136.38324,309.87447L-128.87128,287.17118L-122.30093,287.17118L-133.28639,317.84677L-139.89859,317.84677z"/>
  </g>
  <title>imagebot_2</title>
 </g>
</svg>